<svg width="18" height="18" viewBox="0 0 18 18" fill="none" xmlns="http://www.w3.org/2000/svg">
<path d="M2.37744 5.58008L8.99993 9.41257L15.5774 5.60255" stroke="#0EC9D6" stroke-width="1.5" stroke-linecap="round" stroke-linejoin="round"/>
<path d="M9 16.2073V9.40479" stroke="#0EC9D6" stroke-width="1.5" stroke-linecap="round" stroke-linejoin="round"/>
<path d="M16.2076 6.8775V11.1225C16.2076 11.16 16.2076 11.19 16.2001 11.2275C15.6751 10.77 15.0001 10.5 14.2501 10.5C13.5451 10.5 12.8926 10.7475 12.3751 11.16C11.6851 11.7075 11.2501 12.555 11.2501 13.5C11.2501 14.0625 11.4076 14.595 11.6851 15.045C11.7526 15.165 11.8351 15.2775 11.9251 15.3825L10.5526 16.14C9.6976 16.62 8.30259 16.62 7.44759 16.14L3.44259 13.92C2.53509 13.4175 1.7926 12.1575 1.7926 11.1225V6.8775C1.7926 5.8425 2.53509 4.58252 3.44259 4.08002L7.44759 1.86C8.30259 1.38 9.6976 1.38 10.5526 1.86L14.5576 4.08002C15.4651 4.58252 16.2076 5.8425 16.2076 6.8775Z" stroke="#0EC9D6" stroke-width="1.5" stroke-linecap="round" stroke-linejoin="round"/>
<path d="M17.25 13.5C17.25 14.0625 17.0925 14.595 16.815 15.045C16.6575 15.315 16.455 15.555 16.2225 15.75C15.6975 16.2225 15.0075 16.5 14.25 16.5C13.155 16.5 12.2025 15.915 11.685 15.045C11.4075 14.595 11.25 14.0625 11.25 13.5C11.25 12.555 11.685 11.7075 12.375 11.16C12.8925 10.7475 13.545 10.5 14.25 10.5C15.9075 10.5 17.25 11.8425 17.25 13.5Z" stroke="#FBFEFF" stroke-width="1.5" stroke-miterlimit="10" stroke-linecap="round" stroke-linejoin="round"/>
<path d="M15.0525 14.2798L13.4625 12.6973" stroke="#FBFEFF" stroke-width="1.5" stroke-miterlimit="10" stroke-linecap="round" stroke-linejoin="round"/>
<path d="M15.0375 12.7197L13.4475 14.3022" stroke="#FBFEFF" stroke-width="1.5" stroke-miterlimit="10" stroke-linecap="round" stroke-linejoin="round"/>
</svg>
