<svg width="33" height="19" viewBox="0 0 33 19" fill="none" xmlns="http://www.w3.org/2000/svg">
<path fill-rule="evenodd" clip-rule="evenodd" d="M14.0132 15.1731V18.827H10.2054V15.1731H6.28223L7.83564 11.3653H10.2054V6.06546L12.7824 0.134277H14.0132V11.3653V15.1731Z" fill="#2E2E2E"/>
<path d="M4.25911 18.827H0L8.04498 0.134277H12.3041L4.25911 18.827Z" fill="#0EC9D6"/>
<path fill-rule="evenodd" clip-rule="evenodd" d="M24.4881 0.134277V18.827H20.6803V15.1731H16.7571L18.3106 11.3653H20.6803V6.06546L23.2573 0.134277H24.4881Z" fill="#2E2E2E"/>
<path d="M14.5671 18.827H10.2534L18.4016 0.134277H22.7152L14.5671 18.827Z" fill="#0EC9D6"/>
<path d="M32.9908 17.1635C32.9908 17.6952 32.8394 18.1024 32.5365 18.3851C32.2336 18.661 31.8062 18.799 31.2543 18.799H27.4584C26.9065 18.799 26.4791 18.661 26.1762 18.3851C25.8734 18.1024 25.7219 17.6952 25.7219 17.1635C25.7219 16.6318 25.8734 16.228 26.1762 15.952C26.4791 15.6693 26.9065 15.528 27.4584 15.528H28.2055V16.5779H27.3877C26.9502 16.5779 26.7315 16.7631 26.7315 17.1332C26.7315 17.5033 26.9502 17.6885 27.3877 17.6885H31.3351C31.7658 17.6885 31.9812 17.5033 31.9812 17.1332C31.9812 16.7631 31.7658 16.5779 31.3351 16.5779H30.2549V15.528H31.2543C31.8062 15.528 32.2336 15.6693 32.5365 15.952C32.8394 16.228 32.9908 16.6318 32.9908 17.1635ZM25.8229 14.8636V13.753H31.8803V11.9257H32.8898V14.8636H25.8229ZM25.8229 11.3932V10.2827H32.8898V11.3932H25.8229ZM25.8229 9.45096V8.05776L30.053 6.97752V6.95733H25.8229V5.96795H32.8898V7.10876L27.731 8.44139V8.46158H32.8898V9.45096H25.8229ZM25.8229 5.14256V4.03203H32.8898V5.14256H25.8229ZM32.9908 1.6355C32.9908 2.1672 32.8394 2.57439 32.5365 2.85707C32.2336 3.13302 31.8062 3.27099 31.2543 3.27099H27.4584C26.9065 3.27099 26.4791 3.13302 26.1762 2.85707C25.8734 2.57439 25.7219 2.1672 25.7219 1.6355C25.7219 1.1038 25.8734 0.699969 26.1762 0.424018C26.4791 0.14134 26.9065 7.89794e-07 27.4584 7.89794e-07H28.2055V1.04995H27.3877C26.9502 1.04995 26.7315 1.23504 26.7315 1.60521C26.7315 1.97538 26.9502 2.16047 27.3877 2.16047H31.3351C31.7658 2.16047 31.9812 1.97538 31.9812 1.60521C31.9812 1.23504 31.7658 1.04995 31.3351 1.04995H30.2549V7.89794e-07L31.2543 0C31.8062 0 32.2336 0.141339 32.5365 0.424018C32.8394 0.699969 32.9908 1.1038 32.9908 1.6355Z" fill="#2E2E2E"/>
</svg>
