<svg width="20" height="20" viewBox="0 0 20 20" fill="none" xmlns="http://www.w3.org/2000/svg">
<path d="M13.0439 5.52673L5.29394 13.407C5.03737 13.6901 4.89951 14.0611 4.90892 14.4431C4.91832 14.8251 5.07427 15.1889 5.34446 15.4591C5.61466 15.7293 5.97842 15.8852 6.36042 15.8946C6.74242 15.904 7.11341 15.7662 7.39658 15.5096L16.6352 6.14078C17.1483 5.57444 17.424 4.83246 17.4052 4.06846C17.3864 3.30446 17.0745 2.57695 16.5341 2.03655C15.9937 1.49615 15.2662 1.18426 14.5022 1.16545C13.7382 1.14664 12.9962 1.42235 12.4299 1.9355L3.1913 11.3043C2.35482 12.1408 1.88489 13.2753 1.88489 14.4583C1.88489 15.6413 2.35482 16.7758 3.1913 17.6123C4.02778 18.4487 5.16229 18.9187 6.34526 18.9187C7.52822 18.9187 8.66274 18.4487 9.49922 17.6123L17.1376 9.99251" stroke="#FBFEFF" stroke-width="1.5" stroke-linecap="round" stroke-linejoin="round"/>
</svg>
