<svg width="30" height="30" viewBox="0 0 30 30" fill="none" xmlns="http://www.w3.org/2000/svg">
<path d="M15.15 15.9751C15.0625 15.9626 14.95 15.9626 14.85 15.9751C12.65 15.9001 10.9 14.1001 10.9 11.8876C10.9 9.6251 12.725 7.7876 15 7.7876C17.2625 7.7876 19.1 9.6251 19.1 11.8876C19.0875 14.1001 17.35 15.9001 15.15 15.9751Z" stroke="#D4D6DB" stroke-width="2.5" stroke-linecap="round" stroke-linejoin="round"/>
<path d="M23.425 24.2252C21.2 26.2627 18.25 27.5002 15 27.5002C11.75 27.5002 8.80001 26.2627 6.57501 24.2252C6.70001 23.0502 7.45001 21.9002 8.78751 21.0002C12.2125 18.7252 17.8125 18.7252 21.2125 21.0002C22.55 21.9002 23.3 23.0502 23.425 24.2252Z" stroke="#D4D6DB" stroke-width="2.5" stroke-linecap="round" stroke-linejoin="round"/>
<path d="M15 27.5C21.9036 27.5 27.5 21.9036 27.5 15C27.5 8.09644 21.9036 2.5 15 2.5C8.09644 2.5 2.5 8.09644 2.5 15C2.5 21.9036 8.09644 27.5 15 27.5Z" stroke="#D4D6DB" stroke-width="2.5" stroke-linecap="round" stroke-linejoin="round"/>
</svg>
