<svg width="18" height="18" viewBox="0 0 18 18" fill="none" xmlns="http://www.w3.org/2000/svg">
<path d="M9 16.5C13.1421 16.5 16.5 13.1421 16.5 9C16.5 4.85786 13.1421 1.5 9 1.5C4.85786 1.5 1.5 4.85786 1.5 9C1.5 13.1421 4.85786 16.5 9 16.5Z" stroke="#2E2E2E" stroke-width="1.5" stroke-linecap="round" stroke-linejoin="round"/>
<path d="M9.24745 13.0875C9.11245 13.1325 8.87995 13.1325 8.74495 13.0875C7.57495 12.69 4.94995 11.0175 4.94995 8.18247C4.94995 6.92997 5.95495 5.91748 7.19995 5.91748C7.93495 5.91748 8.58745 6.26997 8.99995 6.82497C9.40495 6.27747 10.0649 5.91748 10.7999 5.91748C12.0449 5.91748 13.0499 6.92997 13.0499 8.18247C13.0499 11.0175 10.4249 12.69 9.24745 13.0875Z" stroke="#0EC9D6" stroke-width="1.5" stroke-linecap="round" stroke-linejoin="round"/>
</svg>
