<svg width="18" height="18" viewBox="0 0 18 18" fill="none" xmlns="http://www.w3.org/2000/svg">
<path d="M11.25 1.5V9C11.25 9.825 10.575 10.5 9.75 10.5H1.5V5.715C2.0475 6.3675 2.88752 6.7725 3.81752 6.75C4.57502 6.735 5.2575 6.4425 5.7675 5.955C6 5.76 6.19502 5.51249 6.34502 5.24249C6.61502 4.78499 6.765 4.24498 6.75 3.68248C6.7275 2.80498 6.33751 2.0325 5.73001 1.5H11.25Z" stroke="#0EC9D6" stroke-width="1.5" stroke-linecap="round" stroke-linejoin="round"/>
<path d="M16.5 10.5V12.75C16.5 13.995 15.495 15 14.25 15H13.5C13.5 14.175 12.825 13.5 12 13.5C11.175 13.5 10.5 14.175 10.5 15H7.5C7.5 14.175 6.825 13.5 6 13.5C5.175 13.5 4.5 14.175 4.5 15H3.75C2.505 15 1.5 13.995 1.5 12.75V10.5H9.75C10.575 10.5 11.25 9.825 11.25 9V3.75H12.63C13.17 3.75 13.665 4.04251 13.935 4.50751L15.2175 6.75H14.25C13.8375 6.75 13.5 7.0875 13.5 7.5V9.75C13.5 10.1625 13.8375 10.5 14.25 10.5H16.5Z" stroke="#2E2E2E" stroke-width="1.5" stroke-linecap="round" stroke-linejoin="round"/>
<path d="M6 16.5C6.82843 16.5 7.5 15.8284 7.5 15C7.5 14.1716 6.82843 13.5 6 13.5C5.17157 13.5 4.5 14.1716 4.5 15C4.5 15.8284 5.17157 16.5 6 16.5Z" stroke="#2E2E2E" stroke-width="1.5" stroke-linecap="round" stroke-linejoin="round"/>
<path d="M12 16.5C12.8284 16.5 13.5 15.8284 13.5 15C13.5 14.1716 12.8284 13.5 12 13.5C11.1716 13.5 10.5 14.1716 10.5 15C10.5 15.8284 11.1716 16.5 12 16.5Z" stroke="#2E2E2E" stroke-width="1.5" stroke-linecap="round" stroke-linejoin="round"/>
<path d="M16.5 9V10.5H14.25C13.8375 10.5 13.5 10.1625 13.5 9.75V7.5C13.5 7.0875 13.8375 6.75 14.25 6.75H15.2175L16.5 9Z" stroke="#2E2E2E" stroke-width="1.5" stroke-linecap="round" stroke-linejoin="round"/>
<path d="M6.75 3.75C6.75 4.65 6.35251 5.4525 5.73001 6C5.19751 6.465 4.5075 6.75 3.75 6.75C2.0925 6.75 0.75 5.4075 0.75 3.75C0.75 2.805 1.185 1.9575 1.875 1.41C2.3925 0.997504 3.045 0.75 3.75 0.75C5.4075 0.75 6.75 2.0925 6.75 3.75Z" stroke="#2E2E2E" stroke-width="1.5" stroke-miterlimit="10" stroke-linecap="round" stroke-linejoin="round"/>
<path d="M3.9375 2.8125V3.9375L3 4.5" stroke="#0EC9D6" stroke-width="1.5" stroke-miterlimit="10" stroke-linecap="round" stroke-linejoin="round"/>
</svg>
