<svg width="18" height="18" viewBox="0 0 18 18" fill="none" xmlns="http://www.w3.org/2000/svg">
<path d="M6.75 8.25V7.5C6.75 6.255 7.125 5.25 9 5.25C10.875 5.25 11.25 6.255 11.25 7.5V8.25" stroke="#0EC9D6" stroke-width="1.5" stroke-linecap="round" stroke-linejoin="round"/>
<path d="M8.99979 10.9498C9.24831 10.9498 9.44977 10.7483 9.44977 10.4998C9.44977 10.2513 9.24831 10.0498 8.99979 10.0498C8.75126 10.0498 8.5498 10.2513 8.5498 10.4998C8.5498 10.7483 8.75126 10.9498 8.99979 10.9498Z" stroke="#0EC9D6" stroke-width="1.5" stroke-linecap="round" stroke-linejoin="round"/>
<path d="M10.875 12.75H7.125C5.625 12.75 5.25 12.375 5.25 10.875V10.125C5.25 8.625 5.625 8.25 7.125 8.25H10.875C12.375 8.25 12.75 8.625 12.75 10.125V10.875C12.75 12.375 12.375 12.75 10.875 12.75Z" stroke="#0EC9D6" stroke-width="1.5" stroke-linecap="round" stroke-linejoin="round"/>
<path d="M9 16.5C13.1421 16.5 16.5 13.1421 16.5 9C16.5 4.85786 13.1421 1.5 9 1.5C4.85786 1.5 1.5 4.85786 1.5 9C1.5 13.1421 4.85786 16.5 9 16.5Z" stroke="#2E2E2E" stroke-width="1.5" stroke-linecap="round" stroke-linejoin="round"/>
</svg>
