<svg width="59" height="59" viewBox="0 0 59 59" fill="none" xmlns="http://www.w3.org/2000/svg">
<circle cx="31" cy="28" r="28" fill="#0ED6A6"/>
<path d="M48.8647 38.4843C48.8645 39.0992 48.7276 39.731 48.437 40.3458C48.1464 40.9606 47.7704 41.5411 47.2749 42.0875C46.4376 43.0095 45.5151 43.6753 44.4731 44.1019C43.4481 44.5285 42.3378 44.7501 41.1423 44.7496C39.4001 44.749 37.5386 44.3383 35.5747 43.5007C33.6109 42.663 31.6471 41.535 29.7006 40.1167C27.7369 38.6812 25.8758 37.0921 24.1002 35.3322C22.3417 33.5552 20.754 31.6929 19.3371 29.7453C17.9373 27.7977 16.8107 25.8502 15.9917 23.9198C15.1726 21.9724 14.7634 20.1106 14.764 18.3343C14.7645 17.1729 14.9698 16.0628 15.3801 15.0381C15.7905 13.9964 16.4399 13.0402 17.3454 12.1866C18.4389 11.1109 19.6347 10.5819 20.8986 10.5824C21.3768 10.5826 21.855 10.6852 22.2819 10.8904C22.7259 11.0955 23.1187 11.4031 23.4259 11.8473L27.3863 17.4339C27.6936 17.861 27.9155 18.2539 28.0691 18.6297C28.2226 18.9884 28.3079 19.3471 28.3078 19.6717C28.3076 20.0816 28.1879 20.4914 27.9486 20.8842C27.7265 21.2769 27.4018 21.6867 26.9917 22.0965L25.6931 23.4453C25.5052 23.6331 25.4197 23.8551 25.4196 24.1284C25.4196 24.265 25.4366 24.3846 25.4707 24.5212C25.5219 24.6579 25.5731 24.7604 25.6072 24.8629C25.9144 25.4266 26.4436 26.1613 27.1948 27.0497C27.963 27.9381 28.7825 28.8437 29.6703 29.7492C30.5923 30.6548 31.4801 31.4921 32.3851 32.261C33.2729 33.0128 34.0072 33.5255 34.5878 33.8332C34.6731 33.8674 34.7756 33.9186 34.8951 33.9699C35.0318 34.0212 35.1684 34.0383 35.3221 34.0384C35.6125 34.0385 35.8345 33.9361 36.0225 33.7483L37.321 32.4678C37.7482 32.041 38.1582 31.7166 38.5512 31.5118C38.9441 31.2729 39.337 31.1534 39.7639 31.1536C40.0885 31.1537 40.43 31.2222 40.8057 31.376C41.1814 31.5299 41.5742 31.7521 42.0011 32.0426L47.6529 36.0585C48.0969 36.3661 48.4042 36.7249 48.5919 37.152C48.7626 37.579 48.8649 38.006 48.8647 38.4843Z" fill="#FBFEFF"/>
</svg>
