<svg width="58" height="58" viewBox="0 0 58 58" fill="none" xmlns="http://www.w3.org/2000/svg">
<path d="M9.29952 33.3815C8.86474 32.9467 8.5145 32.4032 8.28503 31.7631C8.05556 31.123 7.91063 30.4467 7.8744 29.71C7.81402 28.466 7.99518 27.3429 8.42996 26.3042C8.85266 25.2776 9.48067 24.3356 10.3261 23.4902C11.558 22.2583 13.1642 21.2318 15.1449 20.4347C17.1256 19.6376 19.3115 19.0458 21.6907 18.6714C24.0941 18.297 26.5337 18.1038 29.0337 18.0917C31.5337 18.1038 33.9733 18.297 36.3525 18.6714C38.7196 19.0579 40.8935 19.6376 42.838 20.4226C44.7945 21.2197 46.4007 22.2463 47.6568 23.5023C48.478 24.3235 49.1181 25.2535 49.5529 26.268C49.9998 27.2945 50.2171 28.4298 50.1809 29.6738C50.1688 31.2076 49.6978 32.4274 48.8041 33.3211C48.4659 33.6592 48.0553 33.9249 47.6085 34.0819C47.1495 34.251 46.6544 34.3114 46.123 34.2148L39.3718 33.0675C38.8525 32.9829 38.4177 32.8621 38.0433 32.7051C37.681 32.5602 37.367 32.367 37.1375 32.1375C36.8477 31.8477 36.6423 31.4733 36.5337 31.0264C36.4129 30.5916 36.3525 30.0723 36.3525 29.4926L36.3163 27.6206C36.3163 27.3549 36.2196 27.1375 36.0264 26.9443C35.9298 26.8477 35.8332 26.7752 35.7124 26.7028C35.5796 26.6424 35.4709 26.6061 35.3742 26.5578C34.7583 26.3767 33.8646 26.2317 32.7052 26.1351C31.5337 26.0506 30.3139 25.9902 29.0458 25.9781C27.7535 25.9902 26.5337 26.0264 25.3501 26.1231C24.1907 26.2197 23.3091 26.3767 22.6811 26.5699C22.5965 26.6061 22.4878 26.6424 22.3671 26.6907C22.2342 26.7511 22.1255 26.8356 22.0168 26.9443C21.8115 27.1496 21.727 27.3791 21.727 27.6448L21.7149 29.4684C21.7149 30.0723 21.6545 30.5916 21.5217 31.0143C21.413 31.4612 21.2197 31.8235 20.9178 32.1254C20.6883 32.3549 20.3985 32.5481 20.0241 32.7051C19.6497 32.8621 19.2149 32.9829 18.7077 33.0795L11.872 34.2389C11.3406 34.3356 10.8696 34.2993 10.4348 34.1302C10.0121 33.9491 9.63768 33.7196 9.29952 33.3815Z" fill="#FBFEFF"/>
</svg>
