<svg width="35" height="35" viewBox="0 0 35 35" fill="none" xmlns="http://www.w3.org/2000/svg">
<path d="M27.6646 32.0832H7.24792C2.87292 32.0832 2.87292 30.1144 2.87292 27.7082V26.2498C2.87292 25.4478 3.52917 24.7915 4.33125 24.7915H30.5812C31.3833 24.7915 32.0396 25.4478 32.0396 26.2498V27.7082C32.0396 30.1144 32.0396 32.0832 27.6646 32.0832Z" stroke="#27858B" stroke-width="1.5" stroke-linecap="round" stroke-linejoin="round"/>
<path d="M30.2167 18.9582V24.7915H4.76875V18.9582C4.76875 13.3582 8.72083 8.67692 13.9854 7.554C14.7729 7.379 15.5896 7.2915 16.4354 7.2915H18.55C19.3958 7.2915 20.2271 7.379 21.0146 7.554C26.2792 8.6915 30.2167 13.3582 30.2167 18.9582Z" stroke="#27858B" stroke-width="1.5" stroke-linecap="round" stroke-linejoin="round"/>
<path d="M21.1458 6.56234C21.1458 6.91234 21.1021 7.23317 21.0146 7.554C20.2271 7.379 19.3958 7.2915 18.55 7.2915H16.4354C15.5896 7.2915 14.7729 7.379 13.9854 7.554C13.8979 7.23317 13.8542 6.91234 13.8542 6.56234C13.8542 4.54984 15.4875 2.9165 17.5 2.9165C19.5125 2.9165 21.1458 4.54984 21.1458 6.56234Z" stroke="#27858B" stroke-width="1.5" stroke-linecap="round" stroke-linejoin="round"/>
<path d="M21.875 16.0415H13.125" stroke="#0EC9D6" stroke-opacity="0.5" stroke-width="1.5" stroke-linecap="round" stroke-linejoin="round"/>
</svg>
