<svg width="33" height="19" viewBox="0 0 33 19" fill="none" xmlns="http://www.w3.org/2000/svg">
<path fill-rule="evenodd" clip-rule="evenodd" d="M14.0132 15.1731V18.827H10.2054V15.1731H6.28223L7.83564 11.3653H10.2054V6.06546L12.7824 0.134277H14.0132V11.3653V15.1731Z" fill="#FBFEFF"/>
<path d="M4.25911 18.827H0L8.04498 0.134277H12.3041L4.25911 18.827Z" fill="#0EC9D6"/>
<path fill-rule="evenodd" clip-rule="evenodd" d="M24.4881 0.134277V18.827H20.6803V15.1731H16.7571L18.3106 11.3653H20.6803V6.06546L23.2573 0.134277H24.4881Z" fill="#FBFEFF"/>
<path d="M14.5671 18.827H10.2534L18.4016 0.134277H22.7152L14.5671 18.827Z" fill="#0EC9D6"/>
<path d="M32.9907 17.1635C32.9907 17.6952 32.8392 18.1024 32.5364 18.3851C32.2335 18.661 31.8061 18.799 31.2542 18.799H27.4583C26.9064 18.799 26.479 18.661 26.1761 18.3851C25.8732 18.1024 25.7218 17.6952 25.7218 17.1635C25.7218 16.6318 25.8732 16.228 26.1761 15.952C26.479 15.6693 26.9064 15.528 27.4583 15.528H28.2053V16.5779H27.3876C26.9501 16.5779 26.7314 16.7631 26.7314 17.1332C26.7314 17.5033 26.9501 17.6885 27.3876 17.6885H31.335C31.7657 17.6885 31.9811 17.5033 31.9811 17.1332C31.9811 16.7631 31.7657 16.5779 31.335 16.5779H30.2548V15.528H31.2542C31.8061 15.528 32.2335 15.6693 32.5364 15.952C32.8392 16.228 32.9907 16.6318 32.9907 17.1635ZM25.8228 14.8636V13.753H31.8802V11.9257H32.8897V14.8636H25.8228ZM25.8228 11.3932V10.2827H32.8897V11.3932H25.8228ZM25.8228 9.45096V8.05776L30.0528 6.97752V6.95733H25.8228V5.96795H32.8897V7.10876L27.7308 8.44139V8.46158H32.8897V9.45096H25.8228ZM25.8228 5.14256V4.03203H32.8897V5.14256H25.8228ZM32.9907 1.6355C32.9907 2.1672 32.8392 2.57439 32.5364 2.85707C32.2335 3.13302 31.8061 3.27099 31.2542 3.27099H27.4583C26.9064 3.27099 26.479 3.13302 26.1761 2.85707C25.8732 2.57439 25.7218 2.1672 25.7218 1.6355C25.7218 1.1038 25.8732 0.699969 26.1761 0.424018C26.479 0.14134 26.9064 7.89794e-07 27.4583 7.89794e-07H28.2053V1.04995H27.3876C26.9501 1.04995 26.7314 1.23504 26.7314 1.60521C26.7314 1.97538 26.9501 2.16047 27.3876 2.16047H31.335C31.7657 2.16047 31.9811 1.97538 31.9811 1.60521C31.9811 1.23504 31.7657 1.04995 31.335 1.04995H30.2548V7.89794e-07L31.2542 0C31.8061 0 32.2335 0.141339 32.5364 0.424018C32.8392 0.699969 32.9907 1.1038 32.9907 1.6355Z" fill="#FBFEFF"/>
</svg>
